<?xml version="1.0" standalone="no"?>
<!DOCTYPE svg PUBLIC "-//W3C//DTD SVG 20010904//EN"
 "http://www.w3.org/TR/2001/REC-SVG-20010904/DTD/svg10.dtd">
<svg version="1.0" xmlns="http://www.w3.org/2000/svg"
 width="487.000000pt" height="487.000000pt" viewBox="0 0 487.000000 487.000000"
 preserveAspectRatio="xMidYMid meet">
<metadata>
Created by potrace 1.11, written by Peter Selinger 2001-2013
</metadata>
<g transform="translate(0.000000,487.000000) scale(0.100000,-0.100000)"
fill="#000000" stroke="none">
<path d="M2308 4865 c-2 -2 -46 -6 -98 -10 -52 -3 -97 -8 -100 -10 -3 -1 -31
-6 -62 -9 -139 -16 -390 -89 -576 -168 -269 -113 -543 -297 -739 -496 -134
-136 -108 -344 54 -439 68 -40 172 -44 244 -10 30 14 74 45 99 68 181 173 421
323 647 405 92 33 254 78 323 89 19 3 42 8 50 10 84 23 431 23 565 0 256 -45
464 -119 670 -239 117 -67 249 -168 374 -285 78 -73 185 -98 282 -66 76 25
152 103 173 176 20 69 15 145 -14 203 -58 122 -392 381 -669 521 -215 108
-513 206 -706 230 -22 2 -49 7 -60 9 -68 14 -445 31 -457 21z"/>
<path d="M2309 3877 c-2 -3 -31 -7 -64 -11 -33 -3 -69 -8 -80 -10 -132 -32
-170 -42 -230 -63 -143 -52 -327 -157 -435 -250 -158 -135 -220 -227 -221
-326 -2 -161 112 -279 271 -281 90 -1 154 32 244 124 128 130 282 214 471 256
17 3 84 7 150 9 97 3 139 -1 221 -20 177 -41 290 -104 446 -252 79 -75 107
-95 150 -108 161 -48 311 34 352 193 30 110 -5 200 -121 314 -127 125 -201
180 -335 252 -138 74 -304 131 -468 161 -41 7 -344 17 -351 12z"/>
<path d="M373 3561 c-102 -35 -145 -86 -209 -249 -64 -161 -117 -365 -139
-534 -22 -165 -27 -465 -11 -593 4 -27 9 -68 12 -90 3 -22 12 -74 20 -115 9
-41 18 -88 21 -105 11 -64 85 -289 127 -388 91 -213 198 -394 334 -567 95
-120 303 -327 407 -405 44 -33 82 -62 85 -65 19 -21 221 -142 327 -194 358
-179 701 -256 1113 -251 221 3 265 7 440 41 392 78 767 252 1069 497 100 81
281 262 360 362 127 159 268 391 342 565 57 134 116 312 135 405 2 11 11 54
19 95 32 163 44 303 40 500 -2 107 -6 209 -9 225 -3 17 -8 53 -11 80 -23 181
-108 480 -177 620 -37 76 -69 109 -135 141 -146 72 -327 -4 -376 -157 -23 -71
-21 -122 9 -204 80 -218 117 -358 140 -525 15 -110 7 -459 -11 -512 -2 -7 -6
-26 -8 -43 -43 -284 -209 -633 -422 -885 -159 -187 -409 -378 -631 -481 -138
-64 -336 -128 -446 -144 -24 -4 -45 -8 -48 -10 -29 -18 -428 -26 -540 -11
-581 78 -1091 414 -1382 906 -52 89 -128 245 -128 264 0 7 -3 16 -7 19 -17 18
-79 233 -102 357 -25 135 -34 387 -18 538 16 153 62 331 128 496 30 75 40 113
40 157 1 185 -183 319 -358 260z"/>
<path d="M2343 2864 c-344 -72 -469 -500 -219 -747 229 -226 622 -133 727 171
112 323 -173 647 -508 576z"/>
<path d="M1179 2718 c-59 -15 -130 -77 -164 -142 -26 -52 -30 -69 -30 -145 1
-171 23 -307 75 -463 166 -495 605 -874 1115 -963 176 -30 404 -26 562 11 37
9 75 17 83 19 41 8 154 51 230 86 290 136 528 366 675 654 46 90 106 248 119
315 2 14 9 48 14 75 32 163 33 322 2 391 -97 221 -413 220 -505 -1 -15 -35
-18 -55 -30 -215 -22 -303 -238 -602 -524 -726 -131 -57 -219 -75 -356 -76
-260 -1 -474 87 -651 267 -167 169 -249 365 -259 619 -6 142 -51 223 -157 277
-46 24 -142 32 -199 17z"/>
</g>
</svg>
